<?xml version="1.0" encoding="UTF-8" standalone="no"?>
<!-- Created with Inkscape (http://www.inkscape.org/) -->

<svg
   width="25.886421mm"
   height="25.865005mm"
   viewBox="0 0 25.886421 25.865005"
   version="1.1"
   id="svg5"
   xmlns="http://www.w3.org/2000/svg"
   xmlns:svg="http://www.w3.org/2000/svg">
  <defs
     id="defs2" />
  <g
     id="g16104"
     style="display:inline"
     transform="translate(-71.41063,-177.20088)">
    <g
       id="g16070"
       style="display:inline">
      <rect
         style="display:inline;fill:#9d0cff;fill-opacity:0;stroke:none;stroke-width:0.079938;stroke-linecap:round;stroke-linejoin:round;stroke-dasharray:none;stroke-opacity:1"
         id="rect16068"
         width="25.865"
         height="25.865"
         x="71.432053"
         y="177.2009" />
    </g>
    <g
       id="g16074"
       style="display:inline">
      <path
         id="ellipse16072"
         style="display:inline;fill:#000000;fill-opacity:0.242553;stroke:#000000;stroke-width:0;stroke-linecap:round;stroke-linejoin:round;stroke-dasharray:none;stroke-opacity:0.574468"
         d="m 89.762996,179.72495 c 3.85357,1.84444 6.491076,5.59228 6.491077,9.91619 0,3.6826 -1.913041,6.94766 -4.861202,8.97464 -0.975361,0.63728 -2.112295,1.54267 -3.248897,2.1084 -1.350749,0.67233 -2.70785,0.95421 -3.888135,0.97824 -1.897845,0 -3.477933,-0.56339 -5.046204,-1.57252 -0.934424,-0.60126 -1.981843,-1.49982 -2.766756,-2.14922 -2.465656,-2.04 -4.019909,-5.02015 -4.019909,-8.33954 0,-4.29027 2.596951,-8.01286 6.401676,-9.87227 a 12.93244,11.73496 0 0 0 -7.414018,10.60969 12.93244,11.73496 0 0 0 12.932544,11.7352 12.93244,11.73496 0 0 0 12.932544,-11.7352 12.93244,11.73496 0 0 0 -7.51272,-10.65361 z" />
    </g>
    <g
       id="g16078"
       transform="matrix(0.89331342,0,0,0.90984958,8.0665374,10.475169)"
       style="display:inline">
      <path
         id="path16108"
         style="display:inline;fill:#000000;fill-opacity:1;stroke:#ffffff;stroke-width:0;stroke-linecap:round;stroke-linejoin:round;stroke-dasharray:none;stroke-opacity:0.771127;paint-order:stroke fill markers"
         d="m 85.38099,184.68025 c -7.366744,0 -13.338601,5.47912 -13.338602,12.23798 0,3.64829 1.739878,6.92372 4.499999,9.16585 0.06728,0.0547 0.144666,0.11791 0.215195,0.1755 -1.507718,-2.12603 -2.080071,-4.70292 -1.277285,-6.93715 0.743058,-1.74451 1.851557,-2.54376 2.886618,-2.89833 2.131373,-0.73012 4.484827,0.45097 7.082914,2.61151 1.868082,-1.86231 3.6538,-3.06326 5.698611,-3.01136 1.399073,0.0355 3.223571,0.835 4.187041,3.09258 0.732379,2.25134 0.15763,5.03471 -1.539915,7.29667 3.004475,-2.24398 4.924025,-5.66373 4.924025,-9.49527 -10e-7,-6.75886 -5.97186,-12.23798 -13.338601,-12.23798 z" />
    </g>
    <path
       id="path16080"
       style="display:inline;fill:#000000;fill-opacity:1;stroke:#ffffff;stroke-width:0;stroke-linecap:round;stroke-linejoin:round;stroke-dasharray:none;stroke-opacity:0"
       d="m 89.670496,189.3316 c -1.729575,-0.0426 -3.66248,1.39069 -5.242574,2.9192 -3.264758,-2.63443 -6.578579,-4.48151 -8.50129,-0.10129 -1.452938,3.92376 2.417898,9.4128 7.970573,9.52965 6.701886,0.01 10.131679,-5.95009 8.859407,-9.74514 -0.814936,-1.85292 -1.902724,-2.57329 -3.086116,-2.60242 z m -7.087423,3.60494 c 0.148797,-0.003 0.288653,0.11222 0.420129,0.34572 0.131408,0.22987 0.200017,0.48073 0.205156,0.75292 0.0093,0.49358 -0.163509,0.87654 -0.517798,1.14825 -0.171803,0.13032 -0.431776,0.29144 -0.780314,0.48318 l 0.05529,0.0589 c 0.01486,0.0179 0.04105,0.0445 0.07803,0.0801 0.03335,0.0357 0.06492,0.0697 0.09457,0.1018 0.392506,0.40647 0.659686,0.71145 0.801501,0.91571 0.141747,0.20063 0.213889,0.38444 0.217041,0.55139 0.0041,0.21775 -0.056,0.39866 -0.18035,0.5426 -0.128048,0.14037 -0.293376,0.21269 -0.496611,0.21652 -0.22501,0.004 -0.433968,-0.0882 -0.626318,-0.27698 -0.05177,-0.0498 -0.162913,-0.17868 -0.33383,-0.38603 -0.263909,-0.32539 -0.457062,-0.55219 -0.579293,-0.68057 -0.144211,-0.13887 -0.288215,-0.26687 -0.432015,-0.38396 -0.320189,0.15489 -0.611209,0.30922 -0.873332,0.46302 -0.154205,0.10093 -0.297691,0.19254 -0.430464,0.27492 -0.171872,0.12668 -0.314904,0.24755 -0.428915,0.36225 -0.114078,0.11107 -0.208132,0.22556 -0.282153,0.34313 -0.0808,0.14312 -0.157376,0.21516 -0.22996,0.21653 -0.06896,10e-4 -0.130487,-0.0682 -0.183968,-0.20878 -0.05348,-0.14058 -0.08188,-0.31455 -0.08578,-0.52141 -0.0091,-0.48269 0.106541,-0.90009 0.346749,-1.25316 0.06354,-0.0956 0.12153,-0.17858 0.174666,-0.24856 0.05314,-0.07 0.129745,-0.15691 0.229444,-0.26045 0.09607,-0.10347 0.197553,-0.21049 0.304374,-0.32143 -0.382919,-0.28321 -0.678705,-0.56463 -0.887285,-0.84387 -0.212209,-0.27917 -0.320348,-0.52948 -0.324528,-0.75086 -0.0029,-0.15243 0.02309,-0.29818 0.07855,-0.43718 0.05183,-0.13894 0.110891,-0.20858 0.176216,-0.20981 0.13791,-0.003 0.302014,0.0538 0.492993,0.17002 0.190911,0.11257 0.442991,0.30053 0.756543,0.56327 0.269112,0.21638 0.433519,0.34769 0.492477,0.39377 0.05889,0.0425 0.189186,0.12531 0.39119,0.24857 l 2.049488,-1.3348 c 0.118393,-0.0748 0.221407,-0.11308 0.308508,-0.11473 z m 3.398242,0.009 c 0.0871,0.002 0.190116,0.0399 0.308508,0.11472 l 2.049488,1.3348 c 0.202004,-0.12325 0.332818,-0.20611 0.391707,-0.24856 0.05896,-0.0461 0.222848,-0.1774 0.49196,-0.39378 0.313551,-0.26274 0.565632,-0.45018 0.756543,-0.56276 0.190978,-0.1162 0.3556,-0.17313 0.49351,-0.17053 0.06532,0.001 0.123866,0.0714 0.175699,0.21033 0.05546,0.139 0.08143,0.28475 0.07855,0.43718 -0.0042,0.22138 -0.11232,0.47168 -0.324528,0.75086 -0.20858,0.27924 -0.504366,0.56015 -0.887285,0.84336 0.106821,0.11093 0.208306,0.21847 0.304374,0.32194 0.0997,0.10354 0.176308,0.18995 0.229444,0.25993 0.05314,0.07 0.111639,0.15297 0.175183,0.24857 0.240207,0.35306 0.355345,0.77098 0.346232,1.25367 -0.0039,0.20686 -0.0323,0.38032 -0.08578,0.5209 -0.05348,0.14056 -0.114496,0.21059 -0.183451,0.20928 -0.07258,-10e-4 -0.149678,-0.0739 -0.230477,-0.21704 -0.07402,-0.11757 -0.168075,-0.23206 -0.282153,-0.34313 -0.114011,-0.1147 -0.257043,-0.23505 -0.428915,-0.36173 -0.132773,-0.0824 -0.27626,-0.17399 -0.430464,-0.27492 -0.262123,-0.1538 -0.553143,-0.30813 -0.873332,-0.46302 -0.1438,0.11709 -0.287804,0.24509 -0.432015,0.38395 -0.12223,0.12839 -0.315384,0.35519 -0.579293,0.68058 -0.170917,0.20734 -0.282062,0.33566 -0.33383,0.38551 -0.192349,0.18878 -0.400791,0.28123 -0.625801,0.27698 -0.203235,-0.004 -0.36908,-0.0761 -0.497128,-0.21652 -0.124348,-0.14394 -0.184462,-0.32433 -0.18035,-0.54209 0.0032,-0.16694 0.07529,-0.35075 0.217041,-0.55138 0.141815,-0.20426 0.408996,-0.50976 0.801501,-0.91623 0.02965,-0.0321 0.06122,-0.0661 0.09457,-0.1018 0.03698,-0.0356 0.06317,-0.0622 0.07803,-0.0801 l 0.05529,-0.0589 c -0.348537,-0.19173 -0.608511,-0.35286 -0.780314,-0.48317 -0.354289,-0.27172 -0.5266,-0.65417 -0.517281,-1.14774 0.0051,-0.27219 0.07323,-0.52357 0.204639,-0.75344 0.131476,-0.2335 0.271332,-0.34852 0.420129,-0.34571 z" />
  </g>
</svg>
